/* XPM */
static char *_04f8282b20b4e84aca94ad64a27a065[] = {
/* columns rows colors chars-per-pixel */
"32 32 26 1 ",
"  c #EF3E59",
". c #EF4C56",
"X c #EF4C57",
"o c #EF4E56",
"O c #EF4458",
"+ c #EF4558",
"@ c #EF4858",
"# c #EF4958",
"$ c #F04F56",
"% c #F05155",
"& c #F05455",
"* c #F15754",
"= c #F15F51",
"- c #F15C53",
"; c #F15D53",
": c #F15E52",
"> c #F15F52",
", c #F15854",
"< c #F15A54",
"1 c #F15B54",
"2 c #F16051",
"3 c #F26150",
"4 c #F26250",
"5 c #F26350",
"6 c #F26251",
"7 c None",
/* pixels */
"77777777777777755777777777777777",
"77777777777777755777777777777777",
"77777777777777755777777577777777",
"77777777557777755777775577777777",
"77777777757777755777775777777777",
"77777777775777777777757777777777",
"77777777775777577577757777777777",
"77777777777755555555777777777777",
"77777777772555555555577777777777",
"77777777775555555555547777777777",
"77777777755545445555554777777777",
"77777777244544444444444777777777",
"77777777554444444666466477777777",
"777777744444>444444444>477777777",
"777777724447777774>7744447777777",
"77777772=2777777747777=277777777",
"77777777222772224227722277777777",
"77777777=22;77;2;;772;;277777777",
"777777777;;=27;;=77;;==777777777",
"777777777;;;;77;;7;;;;;777777777",
"7777777777;;1;77;;1;;;7777777777",
"77777777777;11777111177777777777",
"77777777777111177111177777777777",
"777777777777*1*7*1**777777777777",
"777777777777*******1777777777777",
"7777777777777&&*%*%7777777777777",
"777777777777777%%777777777777777",
"777777777777X$$$$$$7777777777777",
"7777777777777X7$$7$7777777777777",
"7777777777777##77@@7777777777777",
"77777777777777OOOO77777777777777",
"777777777777777  777777777777777"
};
