/* XPM */
static char *_ab0cb7b9f1b43f7f83253957dc342e4[] = {
/* columns rows colors chars-per-pixel */
"64 64 40 1 ",
"  c #EF3E59",
". c #EF4A57",
"X c #EF4B57",
"o c #EF4D56",
"O c #EF4C57",
"+ c #EF4058",
"@ c #EF4158",
"# c #EF4358",
"$ c #EF4458",
"% c #EF4658",
"& c #EF4758",
"* c #EF4858",
"= c #EF4958",
"- c #F04E56",
"; c #F04F56",
": c #F05155",
"> c #F05255",
", c #F05355",
"< c #F05056",
"1 c #F05156",
"2 c #F05555",
"3 c #F15754",
"4 c #F05655",
"5 c #F15B53",
"6 c #F15F51",
"7 c #F15D52",
"8 c #F15C53",
"9 c #F15D53",
"0 c #F15E52",
"q c #F15F52",
"w c #F15954",
"e c #F15A54",
"r c #F15B54",
"t c #F16051",
"y c #F26150",
"u c #F26151",
"i c #F26250",
"p c #F26350",
"a c #F26251",
"s c None",
/* pixels */
"sssssssssssssssssssssssssssssssppsssssssssssssssssssssssssssssss",
"sssssssssssssssssssssssssssssssppsssssssssssssssssssssssssssssss",
"sssssssssssssssssssssssssssssssppsssssssssssssssssssssssssssssss",
"sssssssssssssssssssssssssssssssppsssssssssssssssssssssssssssssss",
"sssssssssssssssssssssssssssssssppsssssssssssssssssssssssssssssss",
"ssssssssssssssssppsssssssssssssppsssssssssssssppssssssssssssssss",
"sssssssssssssssspppssssssssssssppsssssssssssspppssssssssssssssss",
"sssssssssssssssssppssssssssssssppssssssssssspppsssssssssssssssss",
"sssssssssssssssssappsssssssssssppsssssssssssppssssssssssssssssss",
"ssssssssssssssssssppassssssssssppsssssssssspppssssssssssssssssss",
"sssssssssssssssssssappsssssssssasssssssssspppsssssssssssssssssss",
"ssssssssssssssssssssppssssssssssssssssssspppssssssssssssssssssss",
"sssssssssssssssssssssaassssssssssssssssssppsssssssssssssssssssss",
"sssssssssssssssssssssssssssappuppppppsssssssssssssssssssssssssss",
"ssssssssssssssssssssssssppappppppppppppsssssssssssssssssssssssss",
"sssssssssssssssssssssssppppppppppppppppppsssssssssssssssssssssss",
"ssssssssssssssssssssspppppppppppppppppppppssssssssssssssssssssss",
"ssssssssssssssssssssppppppppppppppppppppppapssssssssssssssssssss",
"ssssssssssssssssssspppppppppppppppppppppppppssssssssssssssssssss",
"ssssssssssssssssssspppppppppppppppppppppppppusssssssssssssssssss",
"ssssssssssssssssssppppppppppppppppppppppppppppssssssssssssssssss",
"sssssssssssssssssypypppppyypppppyppypyypppppppssssssssssssssssss",
"ssssssssssssssssspypypppypypppppypypypypypppppasssssssssssssssss",
"sssssssssssssssssppyppp6pypypypapypypypypypppppsssssssssssssssss",
"sssssssssssssssspp6puuaaaaaauuaayuuuuaaaaaaaaausssssssssssssssss",
"ssssssssssssssssppuuuuaaaaaauuaauuuuuaaaauaaaauussssssssssssssss",
"ssssssssssssssssupuuuuupaaaauuppuuuuuuaauuuuauuussssssssssssssss",
"ssssssssssssssspp6pp6ppsuuuuuu66upppppusspuuupppssssssssssssssss",
"ssssssssssssssst6p6uuusssspp6upp6ppppussssuuuu6pssssssssssssssss",
"ssssssssssssssstp6pqusspssssssssssssussuussuuqppssssssssssssssss",
"ssssssssssssssstqqppusspusssssssssssussuuss6uuppssssssssssssssss",
"ssssssssssssssst6pq6psssssspp6p66p66pssssssp66ppssssssssssssssss",
"ssssssssssssssssyqyqttsssstttttq66p66pssssp6pqttssssssssssssssss",
"ssssssssssssssssqyqyttt6tttttttq6p666sss6666669pssssssssssssssss",
"sssssssssssssssssqq6qqqqqssqq6qq66666ssq6666666sssssssssssssssss",
"sssssssssssssssssqqqqqqqqsssqqqq6qqqsssqqq66qqqsssssssssssssssss",
"sssssssssssssssssqqqwqqqqqss9qqqqqqsssqqqr6rqq6sssssssssssssssss",
"ssssssssssssssssssqqqqqqqqsss9qqrqqssqqq666qqqssssssssssssssssss",
"sssssssssssssssssswqqqqqqqqsss996rsss6r6656rrsssssssssssssssssss",
"sssssssssssssssssssw9q3q3q3qss99rqssqrqrrqrqqsssssssssssssssssss",
"ssssssssssssssssssssq9999999sss9qqss6qr6qqrqssssssssssssssssssss",
"ssssssssssssssssssss3q9993999ssssrrq5rrrrrrsssssssssssssssssssss",
"sssssssssssssssssssss93q99999sssssrr6r55rqqsssssssssssssssssssss",
"ssssssssssssssssssssss39rrr93ss95ssrrrrrrrssssssssssssssssssssss",
"ssssssssssssssssssssss3999339ss3rssrrrr3rrssssssssssssssssssssss",
"sssssssssssssssssssssss333393sssss3rr3r3rsssssssssssssssssssssss",
"sssssssssssssssssssssss3393933sssrr33r3r3sssssssssssssssssssssss",
"sssssssssssssssssssssss3333333w233333333ssssssssssssssssssssssss",
"ssssssssssssssssssssssss3333w2ww33333333ssssssssssssssssssssssss",
"ssssssssssssssssssssssss2243222223232322ssssssssssssssssssssssss",
"ssssssssssssssssssssssss4444222222222222ssssssssssssssssssssssss",
"sssssssssssssssssssssssss,,,,212121212ssssssssssssssssssssssssss",
"sssssssssssssssssssssssssss1111121111sssssssssssssssssssssssssss",
"ssssssssssssssssssssssss11ssssssssssss11ssssssssssssssssssssssss",
"ssssssssssssssssssssssss11-1ssssssss1;11ssssssssssssssssssssssss",
"ssssssssssssssssssssssssss--1------1;;ssssssssssssssssssssssssss",
"ssssssssssssssssssssssssssssoooo-ooossssssssssssssssssssssssssss",
"sssssssssssssssssssssssso=ossssssssssOo=ssssssssssssssssssssssss",
"sssssssssssssssssssssssss=..=.........=sssssssssssssssssssssssss",
"sssssssssssssssssssssssssss=======&==sssssssssssssssssssssssssss",
"ssssssssssssssssssssssssssss&&sss&&&ssssssssssssssssssssssssssss",
"ssssssssssssssssssssssssssss&@@ss@@&ssssssssssssssssssssssssssss",
"sssssssssssssssssssssssssssss@@@@@@sssssssssssssssssssssssssssss",
"sssssssssssssssssssssssssssssss  sssssssssssssssssssssssssssssss"
};
