/* XPM */
static char *d53c570cc0c541289bf63ad812f6f159[] = {
/* columns rows colors chars-per-pixel */
"16 16 19 1 ",
"  c #EF4159",
". c #EF4A58",
"X c #EF4B58",
"o c #F05055",
"O c #F15554",
"+ c #F15654",
"@ c #F15F52",
"# c #F15E53",
"$ c #F15954",
"% c #F15C54",
"& c #F15D54",
"* c #F26050",
"= c #F26150",
"- c #F26250",
"; c #F26350",
": c #F26251",
"> c #F26351",
", c #F16052",
"< c None",
/* pixels */
"<<<<<<<<<<<<<<<<",
"<<<<;<<;;<<;<<<<",
"<<<<;<<<<<;;<<<<",
"<<<<<<;;;;<<<<<<",
"<<<<<*;;;;;<<<<<",
"<<<<;;;;;;;;<<<<",
"<<<<;;*;*;;;<<<<",
"<<<**<<<*<<**<<<",
"<<<<&*<*,<@@<<<<",
"<<<<<&<&&,&<<<<<",
"<<<<<&%<<%%<<<<<",
"<<<<<<+%%%<<<<<<",
"<<<<<<++++<<<<<<",
"<<<<<<<oo<<<<<<<",
"<<<<<<XXXX<<<<<<",
"<<<<<<<  <<<<<<<"
};
